<svg width="205" height="187" viewBox="0 0 205 187" fill="none" xmlns="http://www.w3.org/2000/svg">
<g filter="url(#filter0_dd_1_368)">
<rect x="7.7002" y="5" width="189.7" height="171.5" rx="8.4" fill="white" shape-rendering="crispEdges"/>
<rect x="169.4" y="19" width="14" height="14" rx="4.2" fill="#0071E3"/>
<path d="M175.665 29.3277C175.97 29.3277 176.2 29.2106 176.356 28.9763L179.736 23.8837C179.792 23.8007 179.833 23.7189 179.86 23.6384C179.887 23.5554 179.9 23.4761 179.9 23.4004C179.9 23.1905 179.827 23.0172 179.681 22.8806C179.537 22.7414 179.359 22.6719 179.146 22.6719C179 22.6719 178.875 22.7012 178.773 22.7597C178.673 22.8159 178.578 22.9135 178.487 23.0526L175.65 27.5082L174.229 25.8058C174.076 25.6276 173.883 25.5385 173.651 25.5385C173.434 25.5385 173.254 25.6081 173.113 25.7472C172.971 25.8863 172.9 26.0608 172.9 26.2707C172.9 26.3659 172.915 26.4562 172.944 26.5416C172.976 26.6246 173.033 26.7113 173.116 26.8016L175.002 29.0239C175.175 29.2264 175.396 29.3277 175.665 29.3277Z" fill="white"/>
<rect x="21.7002" y="142.9" width="66.4" height="19.6" rx="2.8" fill="#E5E5E6" fill-opacity="0.5"/>
<path d="M28.5793 156.928V148.655H29.1093V156.928H28.5793ZM30.2371 151.221C30.2026 150.915 30.0605 150.678 29.8105 150.51C29.5606 150.34 29.2461 150.255 28.8669 150.255C28.5955 150.255 28.3607 150.298 28.1625 150.384C27.9643 150.468 27.8102 150.584 27.7004 150.733C27.5926 150.88 27.5388 151.046 27.5388 151.234C27.5388 151.391 27.5754 151.527 27.6487 151.641C27.7241 151.755 27.8221 151.851 27.9427 151.929C28.0655 152.004 28.1969 152.068 28.337 152.119C28.477 152.169 28.6116 152.21 28.7409 152.242L29.3872 152.41C29.5983 152.462 29.8149 152.532 30.0368 152.62C30.2587 152.709 30.4644 152.825 30.654 152.969C30.8436 153.114 30.9965 153.292 31.1129 153.506C31.2313 153.719 31.2906 153.974 31.2906 154.272C31.2906 154.646 31.1936 154.979 30.9998 155.27C30.808 155.561 30.529 155.79 30.1628 155.958C29.7987 156.126 29.3581 156.21 28.8411 156.21C28.3456 156.21 27.9169 156.132 27.5549 155.975C27.193 155.817 26.9097 155.594 26.705 155.306C26.5004 155.015 26.3873 154.67 26.3657 154.272H27.3675C27.3869 154.511 27.4645 154.71 27.6002 154.869C27.7381 155.027 27.9136 155.144 28.1269 155.222C28.3424 155.297 28.5783 155.335 28.8346 155.335C29.1168 155.335 29.3678 155.291 29.5876 155.202C29.8095 155.112 29.984 154.987 30.1111 154.827C30.2382 154.666 30.3017 154.477 30.3017 154.262C30.3017 154.066 30.2457 153.905 30.1337 153.78C30.0238 153.655 29.8741 153.552 29.6845 153.47C29.4971 153.388 29.2849 153.316 29.0479 153.254L28.2659 153.04C27.7359 152.896 27.3158 152.684 27.0056 152.404C26.6975 152.124 26.5435 151.753 26.5435 151.292C26.5435 150.911 26.6469 150.578 26.8537 150.294C27.0605 150.009 27.3406 149.788 27.6939 149.631C28.0472 149.472 28.4458 149.392 28.8896 149.392C29.3377 149.392 29.733 149.471 30.0755 149.628C30.4202 149.785 30.6917 150.002 30.8899 150.277C31.0881 150.551 31.1915 150.866 31.2001 151.221H30.2371ZM34.9043 149.482V156.101H33.9025V150.484H33.8637L32.2802 151.518V150.562L33.9316 149.482H34.9043ZM37.5824 155.196L37.5339 155.548C37.5016 155.807 37.4467 156.076 37.3691 156.356C37.2937 156.638 37.2151 156.9 37.1332 157.141C37.0535 157.382 36.9878 157.574 36.9361 157.716H36.251C36.279 157.583 36.3178 157.402 36.3673 157.173C36.4169 156.947 36.4654 156.694 36.5127 156.414C36.5601 156.134 36.5957 155.849 36.6194 155.558L36.6517 155.196H37.5824ZM40.9981 156.21C40.4875 156.208 40.0513 156.074 39.6893 155.807C39.3274 155.539 39.0506 155.151 38.8588 154.64C38.6671 154.129 38.5712 153.514 38.5712 152.795C38.5712 152.077 38.6671 151.464 38.8588 150.956C39.0527 150.448 39.3306 150.06 39.6926 149.793C40.0567 149.525 40.4918 149.392 40.9981 149.392C41.5044 149.392 41.9385 149.527 42.3004 149.796C42.6624 150.063 42.9392 150.451 43.1309 150.959C43.3248 151.465 43.4218 152.077 43.4218 152.795C43.4218 153.516 43.3259 154.133 43.1342 154.643C42.9424 155.152 42.6656 155.54 42.3037 155.81C41.9417 156.077 41.5065 156.21 40.9981 156.21ZM40.9981 155.348C41.4462 155.348 41.7963 155.129 42.0484 154.692C42.3026 154.254 42.4297 153.622 42.4297 152.795C42.4297 152.245 42.3715 151.781 42.2552 151.402C42.141 151.021 41.9762 150.732 41.7608 150.536C41.5475 150.338 41.2933 150.239 40.9981 150.239C40.5522 150.239 40.2021 150.458 39.9479 150.898C39.6937 151.337 39.5655 151.97 39.5633 152.795C39.5633 153.346 39.6204 153.813 39.7346 154.194C39.8509 154.573 40.0157 154.861 40.229 155.057C40.4423 155.251 40.6987 155.348 40.9981 155.348ZM46.8722 156.21C46.3617 156.208 45.9254 156.074 45.5635 155.807C45.2015 155.539 44.9247 155.151 44.733 154.64C44.5412 154.129 44.4454 153.514 44.4454 152.795C44.4454 152.077 44.5412 151.464 44.733 150.956C44.9269 150.448 45.2048 150.06 45.5667 149.793C45.9308 149.525 46.366 149.392 46.8722 149.392C47.3785 149.392 47.8126 149.527 48.1745 149.796C48.5365 150.063 48.8133 150.451 49.005 150.959C49.1989 151.465 49.2959 152.077 49.2959 152.795C49.2959 153.516 49.2 154.133 49.0083 154.643C48.8165 155.152 48.5397 155.54 48.1778 155.81C47.8158 156.077 47.3807 156.21 46.8722 156.21ZM46.8722 155.348C47.3203 155.348 47.6704 155.129 47.9225 154.692C48.1767 154.254 48.3038 153.622 48.3038 152.795C48.3038 152.245 48.2456 151.781 48.1293 151.402C48.0151 151.021 47.8503 150.732 47.6349 150.536C47.4216 150.338 47.1674 150.239 46.8722 150.239C46.4263 150.239 46.0762 150.458 45.822 150.898C45.5678 151.337 45.4396 151.97 45.4374 152.795C45.4374 153.346 45.4945 153.813 45.6087 154.194C45.725 154.573 45.8899 154.861 46.1031 155.057C46.3164 155.251 46.5728 155.348 46.8722 155.348ZM52.7464 156.21C52.2358 156.208 51.7995 156.074 51.4376 155.807C51.0757 155.539 50.7988 155.151 50.6071 154.64C50.4153 154.129 50.3195 153.514 50.3195 152.795C50.3195 152.077 50.4153 151.464 50.6071 150.956C50.801 150.448 51.0789 150.06 51.4408 149.793C51.8049 149.525 52.2401 149.392 52.7464 149.392C53.2526 149.392 53.6867 149.527 54.0487 149.796C54.4106 150.063 54.6874 150.451 54.8792 150.959C55.0731 151.465 55.17 152.077 55.17 152.795C55.17 153.516 55.0741 154.133 54.8824 154.643C54.6907 155.152 54.4138 155.54 54.0519 155.81C53.69 156.077 53.2548 156.21 52.7464 156.21ZM52.7464 155.348C53.1945 155.348 53.5445 155.129 53.7966 154.692C54.0508 154.254 54.1779 153.622 54.1779 152.795C54.1779 152.245 54.1198 151.781 54.0034 151.402C53.8892 151.021 53.7244 150.732 53.509 150.536C53.2957 150.338 53.0415 150.239 52.7464 150.239C52.3004 150.239 51.9503 150.458 51.6961 150.898C51.4419 151.337 51.3137 151.97 51.3116 152.795C51.3116 153.346 51.3686 153.813 51.4828 154.194C51.5992 154.573 51.764 154.861 51.9773 155.057C52.1905 155.251 52.4469 155.348 52.7464 155.348ZM56.726 156.162C56.5493 156.162 56.3975 156.1 56.2703 155.975C56.1432 155.847 56.0797 155.694 56.0797 155.516C56.0797 155.339 56.1432 155.188 56.2703 155.063C56.3975 154.936 56.5493 154.873 56.726 154.873C56.9026 154.873 57.0545 154.936 57.1816 155.063C57.3087 155.188 57.3723 155.339 57.3723 155.516C57.3723 155.634 57.3421 155.743 57.2818 155.842C57.2236 155.939 57.1461 156.017 57.0491 156.075C56.9522 156.133 56.8445 156.162 56.726 156.162ZM60.7177 156.21C60.2072 156.208 59.7709 156.074 59.409 155.807C59.047 155.539 58.7702 155.151 58.5785 154.64C58.3867 154.129 58.2909 153.514 58.2909 152.795C58.2909 152.077 58.3867 151.464 58.5785 150.956C58.7724 150.448 59.0503 150.06 59.4122 149.793C59.7763 149.525 60.2115 149.392 60.7177 149.392C61.224 149.392 61.6581 149.527 62.0201 149.796C62.382 150.063 62.6588 150.451 62.8506 150.959C63.0444 151.465 63.1414 152.077 63.1414 152.795C63.1414 153.516 63.0455 154.133 62.8538 154.643C62.6621 155.152 62.3852 155.54 62.0233 155.81C61.6614 156.077 61.2262 156.21 60.7177 156.21ZM60.7177 155.348C61.1659 155.348 61.5159 155.129 61.768 154.692C62.0222 154.254 62.1493 153.622 62.1493 152.795C62.1493 152.245 62.0911 151.781 61.9748 151.402C61.8606 151.021 61.6958 150.732 61.4804 150.536C61.2671 150.338 61.0129 150.239 60.7177 150.239C60.2718 150.239 59.9217 150.458 59.6675 150.898C59.4133 151.337 59.2851 151.97 59.2829 152.795C59.2829 153.346 59.34 153.813 59.4542 154.194C59.5705 154.573 59.7354 154.861 59.9486 155.057C60.1619 155.251 60.4183 155.348 60.7177 155.348ZM66.5919 156.21C66.0813 156.208 65.645 156.074 65.2831 155.807C64.9212 155.539 64.6443 155.151 64.4526 154.64C64.2609 154.129 64.165 153.514 64.165 152.795C64.165 152.077 64.2609 151.464 64.4526 150.956C64.6465 150.448 64.9244 150.06 65.2863 149.793C65.6504 149.525 66.0856 149.392 66.5919 149.392C67.0981 149.392 67.5322 149.527 67.8942 149.796C68.2561 150.063 68.5329 150.451 68.7247 150.959C68.9186 151.465 69.0155 152.077 69.0155 152.795C69.0155 153.516 68.9196 154.133 68.7279 154.643C68.5362 155.152 68.2593 155.54 67.8974 155.81C67.5355 156.077 67.1003 156.21 66.5919 156.21ZM66.5919 155.348C67.04 155.348 67.3901 155.129 67.6421 154.692C67.8963 154.254 68.0234 153.622 68.0234 152.795C68.0234 152.245 67.9653 151.781 67.8489 151.402C67.7348 151.021 67.5699 150.732 67.3545 150.536C67.1412 150.338 66.887 150.239 66.5919 150.239C66.1459 150.239 65.7958 150.458 65.5416 150.898C65.2874 151.337 65.1592 151.97 65.1571 152.795C65.1571 153.346 65.2142 153.813 65.3283 154.194C65.4447 154.573 65.6095 154.861 65.8228 155.057C66.036 155.251 66.2924 155.348 66.5919 155.348Z" fill="#313233"/>
<path d="M75.7997 151.6L78.1772 153.977C78.2455 154.045 78.3563 154.045 78.4247 153.977L80.8021 151.6C80.9124 151.489 80.8343 151.301 80.6784 151.301H75.9234C75.7675 151.301 75.6894 151.489 75.7997 151.6Z" fill="#96979A"/>
<path d="M44.0996 44.9004V30.9004" stroke="black" stroke-width="1.4" stroke-linecap="round" stroke-linejoin="round"/>
<path d="M35.7002 44.9V22.5" stroke="black" stroke-width="1.4" stroke-linecap="round" stroke-linejoin="round"/>
<path d="M27.2998 44.9V36.5" stroke="black" stroke-width="1.4" stroke-linecap="round" stroke-linejoin="round"/>
</g>
<defs>
<filter id="filter0_dd_1_368" x="0.700195" y="0.8" width="203.7" height="185.5" filterUnits="userSpaceOnUse" color-interpolation-filters="sRGB">
<feFlood flood-opacity="0" result="BackgroundImageFix"/>
<feColorMatrix in="SourceAlpha" type="matrix" values="0 0 0 0 0 0 0 0 0 0 0 0 0 0 0 0 0 0 127 0" result="hardAlpha"/>
<feOffset dy="0.7"/>
<feGaussianBlur stdDeviation="0.35"/>
<feComposite in2="hardAlpha" operator="out"/>
<feColorMatrix type="matrix" values="0 0 0 0 0 0 0 0 0 0 0 0 0 0 0 0 0 0 0.04 0"/>
<feBlend mode="normal" in2="BackgroundImageFix" result="effect1_dropShadow_1_368"/>
<feColorMatrix in="SourceAlpha" type="matrix" values="0 0 0 0 0 0 0 0 0 0 0 0 0 0 0 0 0 0 127 0" result="hardAlpha"/>
<feOffset dy="2.8"/>
<feGaussianBlur stdDeviation="3.5"/>
<feComposite in2="hardAlpha" operator="out"/>
<feColorMatrix type="matrix" values="0 0 0 0 0 0 0 0 0 0 0 0 0 0 0 0 0 0 0.04 0"/>
<feBlend mode="normal" in2="effect1_dropShadow_1_368" result="effect2_dropShadow_1_368"/>
<feBlend mode="normal" in="SourceGraphic" in2="effect2_dropShadow_1_368" result="shape"/>
</filter>
</defs>
</svg>
