<svg width="205" height="187" viewBox="0 0 205 187" fill="none" xmlns="http://www.w3.org/2000/svg">
<g filter="url(#filter0_dd_1_381)">
<rect x="7.40039" y="5" width="189.7" height="171.5" rx="8.4" fill="white" shape-rendering="crispEdges"/>
<rect x="169.101" y="19" width="14" height="14" rx="4.2" fill="#0071E3"/>
<path d="M175.365 29.3277C175.67 29.3277 175.9 29.2106 176.057 28.9763L179.436 23.8837C179.492 23.8007 179.533 23.7189 179.56 23.6384C179.587 23.5554 179.601 23.4761 179.601 23.4004C179.601 23.1905 179.527 23.0172 179.381 22.8806C179.237 22.7414 179.059 22.6719 178.846 22.6719C178.7 22.6719 178.575 22.7012 178.473 22.7597C178.373 22.8159 178.278 22.9135 178.187 23.0526L175.35 27.5082L173.93 25.8058C173.776 25.6276 173.583 25.5385 173.351 25.5385C173.134 25.5385 172.954 25.6081 172.813 25.7472C172.671 25.8863 172.601 26.0608 172.601 26.2707C172.601 26.3659 172.615 26.4562 172.645 26.5416C172.676 26.6246 172.734 26.7113 172.817 26.8016L174.702 29.0239C174.875 29.2264 175.096 29.3277 175.365 29.3277Z" fill="white"/>
<path d="M35.4001 44.6663C41.8434 44.6663 47.0667 39.443 47.0667 32.9997C47.0667 26.5564 41.8434 21.333 35.4001 21.333C28.9567 21.333 23.7334 26.5564 23.7334 32.9997C23.7334 39.443 28.9567 44.6663 35.4001 44.6663Z" stroke="black" stroke-width="1.4" stroke-linecap="round" stroke-linejoin="round"/>
<path d="M35.4004 26V33L40.0671 35.3333" stroke="black" stroke-width="1.4" stroke-linecap="round" stroke-linejoin="round"/>
</g>
<defs>
<filter id="filter0_dd_1_381" x="0.400391" y="0.8" width="203.7" height="185.5" filterUnits="userSpaceOnUse" color-interpolation-filters="sRGB">
<feFlood flood-opacity="0" result="BackgroundImageFix"/>
<feColorMatrix in="SourceAlpha" type="matrix" values="0 0 0 0 0 0 0 0 0 0 0 0 0 0 0 0 0 0 127 0" result="hardAlpha"/>
<feOffset dy="0.7"/>
<feGaussianBlur stdDeviation="0.35"/>
<feComposite in2="hardAlpha" operator="out"/>
<feColorMatrix type="matrix" values="0 0 0 0 0 0 0 0 0 0 0 0 0 0 0 0 0 0 0.04 0"/>
<feBlend mode="normal" in2="BackgroundImageFix" result="effect1_dropShadow_1_381"/>
<feColorMatrix in="SourceAlpha" type="matrix" values="0 0 0 0 0 0 0 0 0 0 0 0 0 0 0 0 0 0 127 0" result="hardAlpha"/>
<feOffset dy="2.8"/>
<feGaussianBlur stdDeviation="3.5"/>
<feComposite in2="hardAlpha" operator="out"/>
<feColorMatrix type="matrix" values="0 0 0 0 0 0 0 0 0 0 0 0 0 0 0 0 0 0 0.04 0"/>
<feBlend mode="normal" in2="effect1_dropShadow_1_381" result="effect2_dropShadow_1_381"/>
<feBlend mode="normal" in="SourceGraphic" in2="effect2_dropShadow_1_381" result="shape"/>
</filter>
</defs>
</svg>
